<svg width="32" height="32" viewBox="0 0 32 32" fill="none" xmlns="http://www.w3.org/2000/svg">
<path d="M2.17395 16.489C2.17395 20.8779 6.26677 21.1914 7.92131 21.4526C7.92131 25.1101 12.8849 27.2 17.0648 27.2C21.2447 27.2 24.5538 24.2392 25.1634 21.4526C28.0371 20.9302 31.0569 19.4269 29.3105 15.0608C28.3413 12.6379 23.5959 11.1771 21.506 11.2641C21.0706 9.78375 19.9385 6.823 15.2361 6.823C10.8472 6.823 10.1854 10.3062 9.48877 11.7866C8.4438 11.2641 2.17395 11.0029 2.17395 16.489Z" fill="#4ECDC4" stroke="#178079" stroke-width="1.5"/>
<circle cx="10.2724" cy="17.5345" r="0.783731" fill="#EEA69C"/>
<circle cx="21.7671" cy="17.535" r="0.783731" fill="#EEA69C"/>
<circle cx="13.9298" cy="14.9224" r="0.783731" fill="#333333"/>
<circle cx="18.1099" cy="14.9226" r="0.783731" fill="#333333"/>
<path d="M12.2305 18.9004C10.9241 22.587 19.9482 24.1252 19.9482 18.9004C19.9482 17.8845 12.405 18.4078 12.2305 18.9004Z" fill="#333333"/>
</svg>
