<svg width="32" height="32" viewBox="0 0 32 32" fill="none" xmlns="http://www.w3.org/2000/svg">
<path d="M2.17395 16.4898C2.17395 20.8787 6.26677 21.1921 7.92131 21.4534C7.92131 25.1108 12.8849 27.2007 17.0648 27.2007C21.2447 27.2007 24.5538 24.24 25.1634 21.4534C28.0371 20.9309 31.0569 19.4276 29.3105 15.0616C28.3413 12.6387 23.5959 11.1778 21.506 11.2649C21.0706 9.78448 19.9385 6.82373 15.2361 6.82373C10.8472 6.82373 10.1854 10.307 9.48877 11.7874C8.4438 11.2649 2.17395 11.0037 2.17395 16.4898Z" fill="#E0E0E0" stroke="#9E9E9E" stroke-width="1.5"/>
<circle cx="10.2723" cy="17.5342" r="1.5" fill="#9E9E9E"/>
<circle cx="21.7671" cy="17.5342" r="1.5" fill="#9E9E9E"/>
<path d="M19.7177 20C18.7178 19.8208 12.2694 19.5989 12 20C11.6436 20.5305 13.2693 22.5987 14.2694 22.0987C15.7693 21.3488 16.9667 21.5989 18.7694 21.5989C19.2693 21.5989 20.2694 20.0989 19.7177 20Z" fill="#333333"/>
<path d="M19.7481 16.7483C19.7481 16.7483 19.8304 18.6233 18.913 18.6233C17.9957 18.6233 17.25 18.6233 17.25 17.6858C17.25 16.6502 18.913 15.8108 18.913 14.8733C19.7435 15.8108 19.7481 16.7483 19.7481 16.7483Z" fill="#67F9F9"/>
<path d="M14 15C14 15.5523 13.5523 16 13 16C12.4477 16 12 15.5523 12 15C12 14.4477 12.4477 14 13 14C13.5523 14 14 14.4477 14 15Z" fill="#333333"/>
<path d="M19 15C19 15.5523 18.5523 16 18 16C17.4477 16 17 15.5523 17 15C17 14.4477 17.4477 14 18 14C18.5523 14 19 14.4477 19 15Z" fill="#333333"/>
</svg>
